<svg xmlns="http://www.w3.org/2000/svg" version="1.1" xmlns:xlink="http://www.w3.org/1999/xlink" xmlns:svgjs="http://svgjs.dev/svgjs" viewBox="0 0 5.537734107281258 1.6812710845062684"><g transform="matrix(1,0,0,1,1.9205531967798524,0.2728855422531341)"><g><path d=" M 0.588 1.1355000000000002 C 0.624 1.1355000000000002 0.639 1.1205000000000003 0.639 1.0845000000000002 L 0.639 0.7680000000000002 C 0.639 0.7515000000000002 0.6255000000000001 0.7395000000000002 0.6135 0.7395000000000002 C 0.5955 0.7395000000000002 0.47850000000000004 0.8190000000000002 0.4545 0.8370000000000002 C 0.4425 0.8460000000000002 0.438 0.8535000000000001 0.438 0.8760000000000001 L 0.438 0.9705000000000001 L 0.315 0.9705000000000001 C 0.3045 0.9705000000000001 0.2955 0.9630000000000002 0.2955 0.9525000000000001 L 0.2955 0.7845000000000002 L 0.468 0.6750000000000002 C 0.4905 0.6615000000000002 0.4965 0.6495000000000002 0.4965 0.6240000000000001 L 0.4965 0.4860000000000002 C 0.4965 0.46950000000000014 0.486 0.4545000000000001 0.468 0.4545000000000001 C 0.456 0.4545000000000001 0.4425 0.46050000000000013 0.429 0.46950000000000014 L 0.2955 0.5535000000000002 L 0.2955 0.18600000000000017 C 0.2955 0.17700000000000016 0.3045 0.16800000000000015 0.315 0.16800000000000015 L 0.438 0.16800000000000015 L 0.438 0.3330000000000002 C 0.438 0.34950000000000014 0.4515 0.36150000000000015 0.4635 0.36150000000000015 C 0.4815 0.36150000000000015 0.5985 0.28200000000000014 0.6225 0.2640000000000001 C 0.6345000000000001 0.2550000000000001 0.639 0.24750000000000016 0.639 0.2250000000000002 L 0.639 0.05400000000000005 C 0.639 0.018000000000000238 0.624 0.0030000000000001137 0.588 0.0030000000000001137 L 0.063 0.0030000000000001137 C 0.042 0.0030000000000001137 0.03 0.015000000000000124 0.03 0.028500000000000192 C 0.03 0.06000000000000005 0.0945 0.09450000000000025 0.0945 0.1545000000000002 L 0.0945 0.9840000000000002 C 0.0945 1.0440000000000003 0.03 1.0785000000000002 0.03 1.11 C 0.03 1.1235000000000002 0.042 1.1355000000000002 0.063 1.1355000000000002 M 0.983990478515625 0.13950000000000018 C 0.983990478515625 0.09750000000000014 1.031990478515625 0.06000000000000005 1.031990478515625 0.028500000000000192 C 1.031990478515625 0.015000000000000124 1.019990478515625 0.0030000000000001137 0.9989904785156252 0.0030000000000001137 L 0.7349904785156252 0.0030000000000001137 C 0.7139904785156251 0.0030000000000001137 0.7019904785156251 0.015000000000000124 0.7019904785156251 0.028500000000000192 C 0.7019904785156251 0.06000000000000005 0.7604904785156251 0.10200000000000009 0.7739904785156251 0.15600000000000014 L 0.9944904785156251 0.9975000000000002 C 0.9989904785156252 1.0125000000000002 1.000490478515625 1.0245000000000002 1.000490478515625 1.0335 C 0.9989904785156252 1.0575 0.9704904785156252 1.0815000000000001 0.9704904785156252 1.11 C 0.9704904785156252 1.1235000000000002 0.9824904785156251 1.1355000000000002 1.0034904785156251 1.1355000000000002 L 1.2494904785156251 1.1355000000000002 C 1.270490478515625 1.1355000000000002 1.282490478515625 1.1235000000000002 1.282490478515625 1.11 C 1.282490478515625 1.0815000000000001 1.2539904785156253 1.0575 1.2524904785156252 1.0335 C 1.2524904785156252 1.0245000000000002 1.2539904785156253 1.0125000000000002 1.258490478515625 0.9975000000000002 L 1.4789904785156252 0.15600000000000014 C 1.492490478515625 0.10200000000000009 1.550990478515625 0.06000000000000005 1.550990478515625 0.028500000000000192 C 1.550990478515625 0.015000000000000124 1.538990478515625 0.0030000000000001137 1.517990478515625 0.0030000000000001137 L 1.2539904785156253 0.0030000000000001137 C 1.2329904785156252 0.0030000000000001137 1.2209904785156251 0.015000000000000124 1.2209904785156251 0.028500000000000192 C 1.2209904785156251 0.06000000000000005 1.268990478515625 0.09750000000000014 1.268990478515625 0.13950000000000018 L 1.1264904785156251 0.7305000000000001 M 2.1569882812500003 1.1355000000000002 C 2.1929882812500003 1.1355000000000002 2.2079882812500005 1.1205000000000003 2.2079882812500005 1.0845000000000002 L 2.2079882812500005 0.7680000000000002 C 2.2079882812500005 0.7515000000000002 2.1944882812500004 0.7395000000000002 2.1824882812500004 0.7395000000000002 C 2.16448828125 0.7395000000000002 2.04748828125 0.8190000000000002 2.02348828125 0.8370000000000002 C 2.01148828125 0.8460000000000002 2.0069882812500004 0.8535000000000001 2.0069882812500004 0.8760000000000001 L 2.0069882812500004 0.9705000000000001 L 1.8839882812500002 0.9705000000000001 C 1.8734882812500002 0.9705000000000001 1.8644882812500003 0.9630000000000002 1.8644882812500003 0.9525000000000001 L 1.8644882812500003 0.7845000000000002 L 2.03698828125 0.6750000000000002 C 2.05948828125 0.6615000000000002 2.0654882812500004 0.6495000000000002 2.0654882812500004 0.6240000000000001 L 2.0654882812500004 0.4860000000000002 C 2.0654882812500004 0.46950000000000014 2.05498828125 0.4545000000000001 2.03698828125 0.4545000000000001 C 2.02498828125 0.4545000000000001 2.01148828125 0.46050000000000013 1.9979882812500003 0.46950000000000014 L 1.8644882812500003 0.5535000000000002 L 1.8644882812500003 0.18600000000000017 C 1.8644882812500003 0.17700000000000016 1.8734882812500002 0.16800000000000015 1.8839882812500002 0.16800000000000015 L 2.0069882812500004 0.16800000000000015 L 2.0069882812500004 0.3330000000000002 C 2.0069882812500004 0.34950000000000014 2.0204882812500005 0.36150000000000015 2.03248828125 0.36150000000000015 C 2.0504882812500003 0.36150000000000015 2.1674882812500003 0.28200000000000014 2.1914882812500003 0.2640000000000001 C 2.2034882812500003 0.2550000000000001 2.2079882812500005 0.24750000000000016 2.2079882812500005 0.2250000000000002 L 2.2079882812500005 0.05400000000000005 C 2.2079882812500005 0.018000000000000238 2.1929882812500003 0.0030000000000001137 2.1569882812500003 0.0030000000000001137 L 1.6319882812500002 0.0030000000000001137 C 1.6109882812500003 0.0030000000000001137 1.5989882812500003 0.015000000000000124 1.5989882812500003 0.028500000000000192 C 1.5989882812500003 0.06000000000000005 1.6634882812500003 0.09450000000000025 1.6634882812500003 0.1545000000000002 L 1.6634882812500003 0.9840000000000002 C 1.6634882812500003 1.0440000000000003 1.5989882812500003 1.0785000000000002 1.5989882812500003 1.11 C 1.5989882812500003 1.1235000000000002 1.6109882812500003 1.1355000000000002 1.6319882812500002 1.1355000000000002 M 3.0839934082031255 0.9840000000000002 C 3.0839934082031255 1.0440000000000003 3.0194934082031253 1.0785000000000002 3.0194934082031253 1.11 C 3.0194934082031253 1.1235000000000002 3.0314934082031253 1.1355000000000002 3.052493408203125 1.1355000000000002 L 3.3089934082031256 1.1355000000000002 C 3.3299934082031255 1.1355000000000002 3.341993408203125 1.1235000000000002 3.341993408203125 1.11 C 3.341993408203125 1.0785000000000002 3.2774934082031253 1.0440000000000003 3.2774934082031253 0.9840000000000002 L 3.2774934082031253 0.1515000000000002 C 3.2774934082031253 0.09150000000000014 3.341993408203125 0.05700000000000016 3.341993408203125 0.025500000000000078 C 3.341993408203125 0.012000000000000233 3.3299934082031255 2.220446049250313e-16 3.3089934082031256 2.220446049250313e-16 L 3.1154934082031254 2.220446049250313e-16 C 3.0659934082031253 2.220446049250313e-16 3.0479934082031255 0.03750000000000009 3.040493408203125 0.06000000000000005 L 2.8214934082031253 0.7155000000000002 L 2.594993408203125 0.04200000000000026 C 2.5874934082031253 0.019500000000000073 2.5769934082031254 2.220446049250313e-16 2.5289934082031253 2.220446049250313e-16 L 2.3339934082031255 2.220446049250313e-16 C 2.312993408203125 2.220446049250313e-16 2.300993408203125 0.012000000000000233 2.300993408203125 0.025500000000000078 C 2.300993408203125 0.05700000000000016 2.3654934082031254 0.09150000000000014 2.3654934082031254 0.1515000000000002 L 2.3654934082031254 0.9840000000000002 C 2.3654934082031254 1.0440000000000003 2.300993408203125 1.0785000000000002 2.300993408203125 1.11 C 2.300993408203125 1.1235000000000002 2.312993408203125 1.1355000000000002 2.3339934082031255 1.1355000000000002 L 2.5904934082031255 1.1355000000000002 C 2.6114934082031254 1.1355000000000002 2.6234934082031254 1.1235000000000002 2.6234934082031254 1.11 C 2.6234934082031254 1.0785000000000002 2.5589934082031256 1.0440000000000003 2.5589934082031256 0.9840000000000002 L 2.5589934082031256 0.5520000000000002 L 2.711993408203125 0.9975000000000002 C 2.7164934082031253 1.0125000000000002 2.7179934082031254 1.0245000000000002 2.7179934082031254 1.0335 C 2.7164934082031253 1.0575 2.687993408203125 1.0815000000000001 2.687993408203125 1.11 C 2.687993408203125 1.1235000000000002 2.699993408203125 1.1355000000000002 2.7209934082031255 1.1355000000000002 L 2.920493408203125 1.1355000000000002 C 2.9414934082031254 1.1355000000000002 2.9534934082031254 1.1235000000000002 2.9534934082031254 1.11 C 2.9534934082031254 1.0815000000000001 2.923493408203125 1.0575 2.923493408203125 1.0335 C 2.923493408203125 1.0245000000000002 2.9249934082031253 1.0125000000000002 2.9294934082031254 0.9975000000000002 L 3.0839934082031255 0.5505000000000002" fill="#ffffff" fill-rule="nonzero"></path></g><g></g><g clip-path="url(#SvgjsClipPath1137)"><g clip-path="url(#SvgjsClipPath1135b0b6984d-81ee-4bf0-aba0-6f2e3abaf162)"><path d=" M -1.2302472093242343 0.4284113506037452 L -1.4225880538463092 0.058480613545499216 L -1.0376171304494948 0.28075721356837813 L -0.652790824229013 0.058480613545499216 L -0.8451316687510878 0.4284113506037452 L -1.0376171304494948 0.5394773420270186 L -1.2302472093242343 0.4284113506037452 Z" fill="#d795ff" transform="matrix(1,0,0,1,0,0)" fill-rule="evenodd"></path></g><g clip-path="url(#SvgjsClipPath1135b0b6984d-81ee-4bf0-aba0-6f2e3abaf162)"><path d=" M -1.0088383123593498 0.8115022507082384 L -0.7848263062204822 1.1632112235486036 L -0.7848263062204822 0.7188026406791784 L -0.40000000000000013 0.49667065783263187 L -0.816497467837275 0.4783042764384188 L -1.0086936951830174 0.589370267861692 L -1.0088383123593498 0.8115022507082384 Z" fill="#ffb6d3" transform="matrix(1,0,0,1,0,0)" fill-rule="evenodd"></path></g><g clip-path="url(#SvgjsClipPath1135b0b6984d-81ee-4bf0-aba0-6f2e3abaf162)"><path d=" M -1.258881410238047 0.47815965926208637 L -1.6753788780753216 0.49652604065629957 L -1.2905525718548398 0.7188026406791784 L -1.2905525718548398 1.1632112235486036 L -1.0663959485396397 0.8115022507082384 L -1.066540565715972 0.5892256506853597 L -1.258881410238047 0.47815965926208637 Z" fill="#ff6ca8" transform="matrix(1,0,0,1,0,0)" fill-rule="evenodd"></path></g><g clip-path="url(#SvgjsClipPath1135b0b6984d-81ee-4bf0-aba0-6f2e3abaf162)"><path d=" M -0.9365297241931573 0.1466970911082563 C -0.9684801594806542 0.2025740066941462 -1.0396744328802816 0.22197634135859526 -1.0955573149148647 0.1900363428307081 C -1.1514401969494479 0.15809634430282277 -1.1708558283201516 0.08690569594358599 -1.1389262676660499 0.031016849409693258 C -1.1069967070119557 -0.02487199712419767 -1.0358096861764798 -0.04430092452386834 -0.9799148770928857 -0.012381802857369196 C -0.9530305577933983 0.002926367209989591 -0.9333450592592432 0.028305880181368856 -0.9252049589692342 0.058152914578047415 C -0.9170648586792324 0.08799994897472596 -0.9211396892924205 0.11985955171356066 -0.9365297241931646 0.1466970911082563 Z" fill="#d795ff" transform="matrix(1,0,0,1,0,0)" fill-rule="evenodd"></path></g><g clip-path="url(#SvgjsClipPath1135b0b6984d-81ee-4bf0-aba0-6f2e3abaf162)"><path d=" M -0.7191701081655785 0.8735430193548326 C -0.7429629774993077 0.8327992083754873 -0.7398466610453912 0.7817304078376891 -0.711276244125005 0.7441819053209782 C -0.6827058272046044 0.7066334028042672 -0.6343171431008086 0.6900120590766252 -0.5887040666628032 0.7020787911161308 C -0.5430909902247978 0.71414552315564 -0.5092512093424257 0.7525200335296269 -0.5029853556786752 0.799284313082687 C -0.4967195020149173 0.846048592635747 -0.519263585066031 0.8919778658282888 -0.5600912141999512 0.9156266176675566 C -0.6156456076306001 0.947897576005211 -0.6868404864802158 0.9290632944186301 -0.7191701081655785 0.8735430193548326 Z" fill="#ffb6d3" transform="matrix(1,0,0,1,0,0)" fill-rule="evenodd"></path></g><g clip-path="url(#SvgjsClipPath1135b0b6984d-81ee-4bf0-aba0-6f2e3abaf162)"><path d=" M -1.3560641527334094 0.8735430193548326 C -1.3323644321271613 0.8328430377775478 -1.3355222525170174 0.7818729634318362 -1.3640645360484478 0.744409603891911 C -1.3926068195798709 0.7069462443519839 -1.440909852309252 0.6903710418625415 -1.4864409632683837 0.7024160903071848 C -1.5319720742275154 0.7144611387518245 -1.5657602242461306 0.7527531904955113 -1.572043726656249 0.7994295534072469 C -1.5783272290663748 0.8461059163189842 -1.5558680392637698 0.8919699011200506 -1.5151430466990439 0.9156266176675566 C -1.4595886532683948 0.947897576005211 -1.3883937744187793 0.9290632944186301 -1.3560641527334094 0.8735430193548326 Z" fill="#ff6ca8" transform="matrix(1,0,0,1,0,0)" fill-rule="evenodd"></path></g></g></g><defs><clipPath id="SvgjsClipPath1137"><path d=" M -1.6753788780753216 -0.027711223548603447 h 1.2753788780753215 v 1.190922447097207 h -1.2753788780753215 Z"></path></clipPath><clipPath id="SvgjsClipPath1135b0b6984d-81ee-4bf0-aba0-6f2e3abaf162"><path d=" M -1.6753788780753216 -0.027711223548603447 L -0.40000000000000013 -0.027711223548603447 L -0.40000000000000013 1.1632112235486036 L -1.6753788780753216 1.1632112235486036 Z"></path></clipPath></defs></svg>