<svg xmlns="http://www.w3.org/2000/svg" version="1.1" xmlns:xlink="http://www.w3.org/1999/xlink" xmlns:svgjs="http://svgjs.dev/svgjs" viewBox="0 0 10.117037978968366 2.955020511607923"><g transform="matrix(1,0,0,1,3.064169038018323,0.48661743353833664)"><g><path d=" M 0.13916015625 0.000732421875 L 1.05908203125 0.000732421875 L 1.05908203125 0.16845703125 L 0.563232421875 0.16845703125 L 0.5625 0.462158203125 L 0.94189453125 0.462158203125 L 0.94189453125 0.6298828125 L 0.5625 0.6298828125 L 0.5625 0.92138671875 L 1.05908203125 0.92138671875 L 1.05908203125 1.089111328125 L 0.13916015625 1.089111328125 L 0.13916015625 0.000732421875 M 1.16748046875 0.000732421875 L 1.631103515625 0.000732421875 L 1.885986328125 0.7001953125 L 2.121826171875 0.000732421875 L 2.31298828125 0 L 1.931396484375 1.089111328125 L 1.58642578125 1.08837890625 L 1.16748046875 0.000732421875 M 2.461669921875 0.000732421875 L 3.381591796875 0.000732421875 L 3.381591796875 0.16845703125 L 2.8857421875 0.16845703125 L 2.885009765625 0.462158203125 L 3.264404296875 0.462158203125 L 3.264404296875 0.6298828125 L 2.885009765625 0.6298828125 L 2.885009765625 0.92138671875 L 3.381591796875 0.92138671875 L 3.381591796875 1.089111328125 L 2.461669921875 1.089111328125 L 2.461669921875 0.000732421875 M 3.59912109375 0.000732421875 L 3.898681640625 0.000732421875 L 4.310302734375 0.570556640625 L 4.701416015625 0.000732421875 L 4.992919921875 0.000732421875 L 4.992919921875 1.089111328125 L 4.5703125 1.089111328125 L 4.5703125 0.533203125 L 4.16455078125 1.10302734375 L 3.76025390625 0.533203125 L 3.76025390625 1.089111328125 L 3.59912109375 1.089111328125 L 3.59912109375 0.000732421875" fill="#ffffff" fill-rule="nonzero"></path></g><g><path d=" M 0.4245 1.9352856445312496 L 0.4245 1.9817856445312496 L 0.06675 1.9817856445312496 L 0.06675 1.4492856445312496 L 0.41775 1.4492856445312496 L 0.41775 1.4957856445312496 L 0.11925000000000001 1.4957856445312496 L 0.11925000000000001 1.6877856445312496 L 0.3795 1.6877856445312496 L 0.3795 1.7320356445312497 L 0.11925000000000001 1.7320356445312497 L 0.11925000000000001 1.9352856445312496 L 0.4245 1.9352856445312496 M 0.5223815917968749 1.4492856445312496 L 0.7128815917968749 1.9165356445312496 L 0.902631591796875 1.4492856445312496 L 0.9573815917968749 1.4492856445312496 L 0.7353815917968749 1.9817856445312496 L 0.6896315917968749 1.9817856445312496 L 0.4676315917968749 1.4492856445312496 L 0.5223815917968749 1.4492856445312496 M 1.3927686767578122 1.9352856445312496 L 1.3927686767578122 1.9817856445312496 L 1.0350186767578125 1.9817856445312496 L 1.0350186767578125 1.4492856445312496 L 1.3860186767578124 1.4492856445312496 L 1.3860186767578124 1.4957856445312496 L 1.0875186767578124 1.4957856445312496 L 1.0875186767578124 1.6877856445312496 L 1.3477686767578123 1.6877856445312496 L 1.3477686767578123 1.7320356445312497 L 1.0875186767578124 1.7320356445312497 L 1.0875186767578124 1.9352856445312496 L 1.3927686767578122 1.9352856445312496 M 1.5454002685546873 1.5467856445312496 L 1.5454002685546873 1.9817856445312496 L 1.4929002685546873 1.9817856445312496 L 1.4929002685546873 1.4492856445312496 L 1.5334002685546873 1.4492856445312496 L 1.8859002685546873 1.8925356445312496 L 1.8859002685546873 1.4500356445312494 L 1.938400268554687 1.4500356445312494 L 1.938400268554687 1.9817856445312496 L 1.892650268554687 1.9817856445312496 L 1.5454002685546873 1.5467856445312496 M 2.451004760742187 1.4957856445312496 L 2.261254760742187 1.4957856445312496 L 2.261254760742187 1.9817856445312496 L 2.2087547607421874 1.9817856445312496 L 2.2087547607421874 1.4957856445312496 L 2.0190047607421873 1.4957856445312496 L 2.0190047607421873 1.4492856445312496 L 2.451004760742187 1.4492856445312496 L 2.451004760742187 1.4957856445312496 M 2.7029860839843747 1.9817856445312496 L 2.7029860839843747 1.4492856445312496 L 2.9234860839843746 1.4492856445312496 Q 2.957986083984375 1.4492856445312496 2.9868610839843748 1.4639106445312495 Q 3.015736083984375 1.4785356445312496 3.036736083984375 1.5021606445312496 Q 3.057736083984375 1.5257856445312497 3.069736083984375 1.5557856445312497 Q 3.081736083984375 1.5857856445312497 3.081736083984375 1.6165356445312495 Q 3.081736083984375 1.6495356445312497 3.070486083984375 1.6799106445312497 Q 3.059236083984375 1.7102856445312495 3.038986083984375 1.7335356445312495 Q 3.0187360839843747 1.7567856445312495 2.990611083984375 1.7710356445312496 Q 2.9624860839843747 1.7852856445312497 2.9279860839843748 1.7852856445312497 L 2.755486083984375 1.7852856445312497 L 2.755486083984375 1.9817856445312496 L 2.7029860839843747 1.9817856445312496 M 2.755486083984375 1.7387856445312497 L 2.9257360839843747 1.7387856445312497 Q 2.9489860839843747 1.7387856445312497 2.968111083984375 1.7286606445312496 Q 2.987236083984375 1.7185356445312496 3.000736083984375 1.7016606445312497 Q 3.014236083984375 1.6847856445312497 3.0217360839843748 1.6626606445312495 Q 3.029236083984375 1.6405356445312496 3.029236083984375 1.6165356445312495 Q 3.029236083984375 1.5917856445312495 3.0206110839843747 1.5696606445312495 Q 3.011986083984375 1.5475356445312496 2.9973610839843747 1.5310356445312496 Q 2.982736083984375 1.5145356445312497 2.9628610839843748 1.5051606445312495 Q 2.942986083984375 1.4957856445312496 2.921236083984375 1.4957856445312496 L 2.755486083984375 1.4957856445312496 L 2.755486083984375 1.7387856445312497 M 3.170618041992187 1.9817856445312496 L 3.170618041992187 1.4492856445312496 L 3.2231180419921874 1.4492856445312496 L 3.2231180419921874 1.9352856445312496 L 3.5306180419921875 1.9352856445312496 L 3.5306180419921875 1.9817856445312496 L 3.170618041992187 1.9817856445312496 M 3.7739989013671873 1.4492856445312496 L 3.8182489013671876 1.4492856445312496 L 4.039498901367187 1.9817856445312496 L 3.9839989013671873 1.9817856445312496 L 3.9149989013671873 1.8152856445312495 L 3.6757489013671876 1.8152856445312495 L 3.607498901367187 1.9817856445312496 L 3.5512489013671873 1.9817856445312496 L 3.7739989013671873 1.4492856445312496 M 3.9029989013671873 1.7740356445312495 L 3.7957489013671872 1.5107856445312495 L 3.6869989013671876 1.7740356445312495 L 3.9029989013671873 1.7740356445312495 M 4.169642944335937 1.5467856445312496 L 4.169642944335937 1.9817856445312496 L 4.117142944335937 1.9817856445312496 L 4.117142944335937 1.4492856445312496 L 4.157642944335937 1.4492856445312496 L 4.510142944335937 1.8925356445312496 L 4.510142944335937 1.4500356445312494 L 4.562642944335937 1.4500356445312494 L 4.562642944335937 1.9817856445312496 L 4.516892944335937 1.9817856445312496 L 4.169642944335937 1.5467856445312496 M 4.749747436523437 1.5467856445312496 L 4.749747436523437 1.9817856445312496 L 4.697247436523437 1.9817856445312496 L 4.697247436523437 1.4492856445312496 L 4.737747436523437 1.4492856445312496 L 5.090247436523437 1.8925356445312496 L 5.090247436523437 1.4500356445312494 L 5.142747436523437 1.4500356445312494 L 5.142747436523437 1.9817856445312496 L 5.096997436523437 1.9817856445312496 L 4.749747436523437 1.5467856445312496 M 5.635101928710937 1.9352856445312496 L 5.635101928710937 1.9817856445312496 L 5.277351928710937 1.9817856445312496 L 5.277351928710937 1.4492856445312496 L 5.628351928710937 1.4492856445312496 L 5.628351928710937 1.4957856445312496 L 5.329851928710937 1.4957856445312496 L 5.329851928710937 1.6877856445312496 L 5.590101928710937 1.6877856445312496 L 5.590101928710937 1.7320356445312497 L 5.329851928710937 1.7320356445312497 L 5.329851928710937 1.9352856445312496 L 5.635101928710937 1.9352856445312496 M 5.735233520507812 1.9817856445312496 L 5.735233520507812 1.4492856445312496 L 5.9602335205078125 1.4492856445312496 Q 5.994733520507812 1.4492856445312496 6.023608520507812 1.4639106445312495 Q 6.0524835205078125 1.4785356445312496 6.073483520507812 1.5021606445312496 Q 6.094483520507812 1.5257856445312497 6.106108520507812 1.5557856445312497 Q 6.117733520507812 1.5857856445312497 6.117733520507812 1.6165356445312495 Q 6.117733520507812 1.6457856445312495 6.109108520507812 1.6724106445312497 Q 6.1004835205078125 1.6990356445312496 6.085108520507812 1.7204106445312495 Q 6.069733520507812 1.7417856445312496 6.047983520507812 1.7564106445312495 Q 6.026233520507812 1.7710356445312496 5.999233520507812 1.7762856445312496 L 6.129733520507812 1.9817856445312496 L 6.070483520507812 1.9817856445312496 L 5.945233520507812 1.7852856445312497 L 5.787733520507812 1.7852856445312497 L 5.787733520507812 1.9817856445312496 L 5.735233520507812 1.9817856445312496 M 5.787733520507812 1.7387856445312497 L 5.961733520507812 1.7387856445312497 Q 5.984983520507813 1.7387856445312497 6.004108520507812 1.7286606445312496 Q 6.023233520507812 1.7185356445312496 6.036733520507812 1.7012856445312496 Q 6.050233520507812 1.6840356445312497 6.057733520507812 1.6622856445312495 Q 6.065233520507812 1.6405356445312496 6.065233520507812 1.6165356445312495 Q 6.065233520507812 1.5925356445312495 6.056608520507812 1.5704106445312496 Q 6.047983520507812 1.5482856445312496 6.033358520507812 1.5317856445312497 Q 6.018733520507812 1.5152856445312497 5.998858520507812 1.5055356445312496 Q 5.978983520507812 1.4957856445312496 5.957233520507812 1.4957856445312496 L 5.787733520507812 1.4957856445312496 L 5.787733520507812 1.7387856445312497 M 6.537369873046875 1.5490356445312496 Q 6.514869873046875 1.5235356445312496 6.477369873046874 1.5077856445312496 Q 6.439869873046875 1.4920356445312497 6.391869873046875 1.4920356445312497 Q 6.321369873046875 1.4920356445312497 6.289119873046874 1.5186606445312496 Q 6.256869873046875 1.5452856445312495 6.256869873046875 1.5910356445312497 Q 6.256869873046875 1.6150356445312495 6.265494873046874 1.6304106445312496 Q 6.274119873046875 1.6457856445312495 6.292119873046874 1.6570356445312497 Q 6.310119873046875 1.6682856445312497 6.338244873046874 1.6765356445312496 Q 6.3663698730468745 1.6847856445312497 6.404619873046875 1.6930356445312496 Q 6.447369873046875 1.7020356445312497 6.481494873046874 1.7132856445312497 Q 6.515619873046875 1.7245356445312496 6.539619873046875 1.7414106445312496 Q 6.563619873046875 1.7582856445312496 6.5763698730468745 1.7822856445312496 Q 6.589119873046875 1.8062856445312496 6.589119873046875 1.8422856445312497 Q 6.589119873046875 1.8790356445312497 6.574869873046874 1.9060356445312496 Q 6.560619873046875 1.9330356445312495 6.535119873046875 1.9510356445312496 Q 6.509619873046875 1.9690356445312496 6.474369873046875 1.9776606445312497 Q 6.439119873046875 1.9862856445312496 6.397119873046875 1.9862856445312496 Q 6.2733698730468745 1.9862856445312496 6.183369873046875 1.9090356445312495 L 6.209619873046875 1.8662856445312497 Q 6.2238698730468744 1.8812856445312496 6.243744873046874 1.8947856445312496 Q 6.263619873046875 1.9082856445312497 6.287994873046875 1.9184106445312497 Q 6.312369873046874 1.9285356445312496 6.340119873046874 1.9341606445312496 Q 6.367869873046875 1.9397856445312496 6.398619873046875 1.9397856445312496 Q 6.462369873046875 1.9397856445312496 6.497994873046875 1.9169106445312496 Q 6.533619873046875 1.8940356445312496 6.533619873046875 1.8475356445312496 Q 6.533619873046875 1.8227856445312496 6.523494873046875 1.8059106445312496 Q 6.513369873046875 1.7890356445312496 6.493119873046875 1.7766606445312496 Q 6.472869873046875 1.7642856445312496 6.442869873046875 1.7552856445312497 Q 6.4128698730468745 1.7462856445312496 6.373119873046875 1.7372856445312497 Q 6.331119873046875 1.7275356445312495 6.299619873046875 1.7170356445312496 Q 6.268119873046874 1.7065356445312496 6.246369873046874 1.6907856445312497 Q 6.2246198730468745 1.6750356445312495 6.213744873046875 1.6529106445312496 Q 6.2028698730468745 1.6307856445312496 6.2028698730468745 1.5985356445312495 Q 6.2028698730468745 1.5617856445312497 6.216744873046875 1.5329106445312495 Q 6.230619873046875 1.5040356445312497 6.256119873046875 1.4849106445312497 Q 6.281619873046875 1.4657856445312496 6.316119873046874 1.4556606445312497 Q 6.350619873046875 1.4455356445312497 6.392619873046875 1.4455356445312497 Q 6.445869873046875 1.4455356445312497 6.487494873046875 1.4616606445312494 Q 6.5291198730468745 1.4777856445312496 6.562869873046875 1.5070356445312496 L 6.537369873046875 1.5490356445312496" fill="url(#gradient-51415858-21f2-43bf-a1e9-f636abe268f0)" fill-rule="nonzero"></path></g><g clip-path="url(#SvgjsClipPath1064)"><g clip-path="url(#SvgjsClipPath1062cb9176c7-ad73-456e-a91f-0e9232283615)"><path d=" M -1.8490286225018921 0.7477053849235985 L -2.1847206740482283 0.10206608578410378 L -1.5128317708780425 0.4900049453530654 L -0.8411952677466137 0.10206608578410378 L -1.1768873192929499 0.7477053849235985 L -1.5128317708780425 0.9415486146887011 L -1.8490286225018921 0.7477053849235985 Z" fill="#ffc632" transform="matrix(1,0,0,1,0,0)" fill-rule="evenodd"></path></g><g clip-path="url(#SvgjsClipPath1062cb9176c7-ad73-456e-a91f-0e9232283615)"><path d=" M -1.4626041631654705 1.416313087589948 L -1.0716365031314292 2.0301499818461055 L -1.0716365031314292 1.2545246627469393 L -0.3999999999999999 0.8668382032167344 L -1.126912111619134 0.8347833982946407 L -1.4623517631267138 1.0286266280597431 L -1.4626041631654705 1.416313087589948 Z" fill="#af2cff" transform="matrix(1,0,0,1,0,0)" fill-rule="evenodd"></path></g><g clip-path="url(#SvgjsClipPath1062cb9176c7-ad73-456e-a91f-0e9232283615)"><path d=" M -1.8990038301757077 0.8345309982558841 L -2.6259159417948417 0.8665858031779778 L -1.9542794386634126 1.2545246627469393 L -1.9542794386634126 2.0301499818461055 L -1.5630593785906146 1.416313087589948 L -1.5633117786293713 1.0283742280209867 L -1.8990038301757077 0.8345309982558841 Z" fill="#ff6ca8" transform="matrix(1,0,0,1,0,0)" fill-rule="evenodd"></path></g><g clip-path="url(#SvgjsClipPath1062cb9176c7-ad73-456e-a91f-0e9232283615)"><path d=" M -1.3364041437871503 0.25603010942565824 C -1.392167167996121 0.35355196690588814 -1.516422376271079 0.3874148187847047 -1.6139546469810482 0.33167000982925243 C -1.7114869176910172 0.27592520087380334 -1.7453729762819212 0.1516763193738407 -1.6896463845245557 0.05413363883638697 C -1.633919792767203 -0.0434090417010636 -1.5096772423764562 -0.07731830582198583 -1.412124155414165 -0.021609933206649518 C -1.365203012260736 0.005107382234596287 -1.3308459551049197 0.049402190223917355 -1.316639056029812 0.10149415349927446 C -1.3024321569547173 0.15358611677463155 -1.3095439498328438 0.209190611136843 -1.336404143787163 0.25603010942565824 Z" fill="#ffc632" transform="matrix(1,0,0,1,0,0)" fill-rule="evenodd"></path></g><g clip-path="url(#SvgjsClipPath1062cb9176c7-ad73-456e-a91f-0e9232283615)"><path d=" M -0.9570468855359129 1.5245927042165484 C -0.9985725278853557 1.4534826208150853 -0.9931336276544547 1.3643523559192348 -0.9432697420436276 1.2988190373271933 C -0.8934058564327754 1.2332857187351516 -0.8089531928355407 1.2042765242021172 -0.7293447911730611 1.2253365650055497 C -0.6497363895105814 1.2463966058089881 -0.5906758946036961 1.313371554091756 -0.5797401140298923 1.3949891480108232 C -0.5688043334560757 1.4766067419298903 -0.6081504718619031 1.5567670010903774 -0.679406842903602 1.5980411154947305 C -0.7763658031779317 1.65436354787591 -0.9006220681434178 1.6214921177804937 -0.9570468855359129 1.5245927042165484 Z" fill="#af2cff" transform="matrix(1,0,0,1,0,0)" fill-rule="evenodd"></path></g><g clip-path="url(#SvgjsClipPath1062cb9176c7-ad73-456e-a91f-0e9232283615)"><path d=" M -2.0686166562201693 1.5245927042165484 C -2.0272535861392678 1.4535591161737922 -2.032764923097986 1.3646011578831523 -2.0825797075671444 1.2992164391406278 C -2.13239449203629 1.2338317203981002 -2.216697668478748 1.2049030560662852 -2.296163015971805 1.225925252539449 C -2.3756283634648625 1.2469474490126067 -2.4345987471391557 1.3137784824298555 -2.445565330031054 1.3952426356288061 C -2.456531912922965 1.4767067888277599 -2.4173339385164434 1.5567531003026633 -2.3462566988524927 1.5980411154947305 C -2.249297738578163 1.65436354787591 -2.1250414736126766 1.6214921177804937 -2.0686166562201693 1.5245927042165484 Z" fill="#ff6ca8" transform="matrix(1,0,0,1,0,0)" fill-rule="evenodd"></path></g></g></g><defs><linearGradient id="gradient-51415858-21f2-43bf-a1e9-f636abe268f0" y1="0" x1="0" y2="1" x2="1"><stop stop-color="#bd2949" offset="0"></stop><stop stop-color="#e9ae3f" offset="1"></stop></linearGradient><clipPath id="SvgjsClipPath1064"><path d=" M -2.6259159417948417 -0.0483643373148559 h 2.2259159417948418 v 2.0785143191609614 h -2.2259159417948418 Z"></path></clipPath><clipPath id="SvgjsClipPath1062cb9176c7-ad73-456e-a91f-0e9232283615"><path d=" M -2.6259159417948417 -0.0483643373148559 L -0.3999999999999999 -0.0483643373148559 L -0.3999999999999999 2.0301499818461055 L -2.6259159417948417 2.0301499818461055 Z"></path></clipPath></defs></svg>